<mxfile host="app.diagrams.net" modified="2023-05-24T17:49:45.442Z" agent="Mozilla/5.0 (Macintosh; Intel Mac OS X 10_15_7) AppleWebKit/605.1.15 (KHTML, like Gecko) Version/16.4 Safari/605.1.15" version="21.3.3" etag="csBe7D8ENmhs4guIEyWj" type="github">
  <diagram name="Seite-1" id="6Ro5RYlObLwOXTNm4tMm">
    <mxGraphModel>
      <root>
        <mxCell id="0" />
        <mxCell id="1" parent="0" />
      </root>
    </mxGraphModel>
  </diagram>
</mxfile>
